<?xml version="1.0" standalone="no"?>
<!DOCTYPE svg PUBLIC "-//W3C//DTD SVG 20010904//EN"
 "http://www.w3.org/TR/2001/REC-SVG-20010904/DTD/svg10.dtd">
<svg version="1.0" xmlns="http://www.w3.org/2000/svg"
 width="512.000000pt" height="512.000000pt" viewBox="0 0 512.000000 512.000000"
 preserveAspectRatio="xMidYMid meet">

<g transform="translate(0.000000,512.000000) scale(0.100000,-0.100000)"
fill="#000000" stroke="none">
<path d="M44 5108 c-42 -20 -44 -40 -44 -483 l0 -425 2328 0 c1280 0 2432 -3
2560 -7 l233 -6 -3 446 c-3 413 -4 448 -21 464 -17 17 -133 18 -2525 20 -1715
1 -2514 -2 -2528 -9z m3846 -453 l0 -155 -1790 0 -1790 0 0 155 0 155 1790 0
1790 0 0 -155z"/>
<path d="M892 1684 c30 -16 70 -91 94 -179 21 -78 30 -354 15 -451 -17 -108
-48 -200 -82 -239 l-31 -35 24 0 c32 0 124 27 170 51 55 28 151 121 180 176
46 84 61 156 56 260 -5 82 -10 103 -41 167 -71 144 -210 241 -367 259 -44 5
-44 5 -18 -9z"/>
<path d="M1170 451 c88 -28 164 -93 202 -171 17 -35 23 -70 27 -160 l6 -115
154 -3 153 -3 -4 118 c-3 100 -7 126 -27 167 -31 63 -84 116 -147 147 -45 22
-62 24 -219 26 -97 1 -159 -1 -145 -6z"/>
</g>
</svg>
