<?xml version="1.0" standalone="no"?>
<!DOCTYPE svg PUBLIC "-//W3C//DTD SVG 20010904//EN"
 "http://www.w3.org/TR/2001/REC-SVG-20010904/DTD/svg10.dtd">
<svg version="1.0" xmlns="http://www.w3.org/2000/svg"
 width="512.000000pt" height="512.000000pt" viewBox="0 0 512.000000 512.000000"
 preserveAspectRatio="xMidYMid meet">

<g transform="translate(0.000000,512.000000) scale(0.100000,-0.100000)"
fill="#000000" stroke="none">
<path d="M1460 5114 c-14 -2 -56 -9 -95 -15 -198 -32 -396 -127 -538 -259
-190 -174 -263 -449 -207 -772 16 -89 19 -92 64 -69 66 34 107 35 189 7 135
-46 212 -59 362 -59 251 1 487 67 706 199 31 19 66 34 78 34 11 0 46 -23 77
-51 81 -73 127 -91 259 -99 82 -5 120 -12 151 -28 l41 -21 12 57 c23 105 26
298 7 392 -42 207 -163 357 -331 410 -24 8 -69 40 -114 81 -135 125 -303 188
-516 194 -66 2 -131 2 -145 -1z"/>
</g>
</svg>
