<?xml version="1.0" standalone="no"?>
<!DOCTYPE svg PUBLIC "-//W3C//DTD SVG 20010904//EN"
 "http://www.w3.org/TR/2001/REC-SVG-20010904/DTD/svg10.dtd">
<svg version="1.0" xmlns="http://www.w3.org/2000/svg"
 width="512.000000pt" height="512.000000pt" viewBox="0 0 512.000000 512.000000"
 preserveAspectRatio="xMidYMid meet">

<g transform="translate(0.000000,512.000000) scale(0.100000,-0.100000)"
fill="#000000" stroke="none">
<path d="M1945 5105 c-274 -43 -484 -152 -671 -347 -182 -190 -293 -430 -324
-697 -5 -47 -10 -186 -10 -308 l0 -222 43 19 c59 26 105 33 153 22 l42 -9 4
54 c5 57 25 92 71 127 24 17 44 20 204 21 203 3 253 12 378 75 82 41 132 82
215 178 69 79 89 75 183 -41 120 -148 331 -226 581 -214 60 2 123 1 140 -4 54
-15 95 -67 108 -136 l11 -61 34 10 c42 12 105 2 156 -23 l37 -19 0 246 c0 272
-13 400 -57 538 -110 352 -387 624 -755 741 -184 59 -377 77 -543 50z"/>
<path d="M985 3123 c-32 -261 -52 -336 -143 -528 l-67 -140 1 -115 c0 -107 3
-124 42 -244 47 -144 58 -209 48 -290 l-7 -56 -72 -33 c-100 -47 -168 -112
-211 -200 -30 -62 -46 -128 -111 -457 -42 -212 -79 -395 -82 -407 l-5 -23 276
0 276 0 0 -315 0 -315 573 1 c390 0 564 3 547 10 -32 13 -78 56 -97 93 -20 38
-21 107 -3 140 24 46 57 56 181 56 l112 0 -27 21 c-58 45 -56 27 -56 662 l0
584 -87 7 c-114 9 -233 41 -281 75 -20 15 -50 52 -67 82 l-30 54 3 277 2 276
-47 28 c-260 151 -439 427 -469 725 l-6 66 -67 -1 c-36 -1 -78 2 -93 7 -26 7
-27 5 -33 -40z"/>
<path d="M3215 3159 c-16 -6 -58 -8 -92 -5 l-63 5 0 -49 c0 -100 -43 -250
-105 -368 -71 -135 -208 -280 -333 -352 l-61 -35 -1 -196 0 -196 182 -6 c99
-4 285 -7 413 -7 l232 0 48 160 c45 152 47 166 43 253 -4 90 -6 98 -66 223
-34 71 -71 156 -82 189 -23 68 -60 260 -60 314 0 42 -10 81 -19 80 -3 0 -19
-5 -36 -10z"/>
</g>
</svg>
