<?xml version="1.0" standalone="no"?>
<!DOCTYPE svg PUBLIC "-//W3C//DTD SVG 20010904//EN"
 "http://www.w3.org/TR/2001/REC-SVG-20010904/DTD/svg10.dtd">
<svg version="1.0" xmlns="http://www.w3.org/2000/svg"
 width="512.000000pt" height="512.000000pt" viewBox="0 0 512.000000 512.000000"
 preserveAspectRatio="xMidYMid meet">

<g transform="translate(0.000000,512.000000) scale(0.100000,-0.100000)"
fill="#ca1616" stroke="none">
<path d="M2380 4794 c-539 -49 -1022 -274 -1401 -653 -408 -408 -633 -923
-656 -1501 -24 -604 199 -1189 619 -1626 349 -363 791 -592 1288 -670 176 -28
511 -25 690 5 568 96 1068 396 1418 849 572 743 614 1791 104 2572 -356 546
-910 906 -1547 1005 -97 15 -425 27 -515 19z m485 -339 c528 -92 957 -362
1267 -796 80 -111 205 -357 247 -485 248 -762 21 -1574 -584 -2082 -579 -486
-1385 -589 -2062 -263 -208 101 -367 214 -534 380 -177 177 -306 368 -403 594
-407 952 11 2048 949 2493 187 88 369 141 585 170 131 17 410 11 535 -11z"/>
<path d="M1615 3356 c-66 -29 -105 -106 -91 -179 4 -22 80 -132 221 -320 l215
-287 -211 -281 c-116 -155 -215 -294 -221 -311 -25 -71 14 -156 86 -189 52
-23 80 -23 133 1 37 16 76 64 302 366 273 364 284 382 265 454 -12 41 -511
711 -549 736 -35 23 -112 28 -150 10z"/>
<path d="M2252 2053 c-18 -9 -45 -32 -60 -51 -22 -29 -27 -46 -27 -93 0 -62
17 -94 69 -133 27 -21 37 -21 646 -21 609 0 619 0 646 21 95 70 98 192 6 262
l-35 27 -606 2 c-547 3 -609 1 -639 -14z"/>
</g>
</svg>
